<svg height="800" width="800" version="1.1" id="Layer_1" xmlns="http://www.w3.org/2000/svg" viewBox="0 0 297 297" xml:space="preserve"><circle style="fill:#662621" cx="148.5" cy="148.5" r="148.5"/><path style="fill:#511815" d="M297 148.5c0-2.611-.069-5.205-.202-7.782l-69.924-69.924L70.716 226.92l69.864 69.869c2.623.138 5.263.211 7.921.211C230.514 297 297 230.514 297 148.5z"/><path style="fill:#f9b65f" d="M81 231h135c8.284 0 15-6.716 15-15V81c0-8.284-6.716-15-15-15H81c-8.284 0-15 6.716-15 15v135c0 8.284 6.716 15 15 15z"/><path style="fill:#dd9e52" d="M216 66h-68.5v165H216c8.284 0 15-6.716 15-15V81c0-8.284-6.716-15-15-15z"/><path style="fill:#c0392b" d="m122.661 95.944 71.789 41.447c6.74 3.892 6.74 13.62 0 17.512l-71.789 41.447c-6.74 3.891-15.166-.973-15.166-8.756v-82.895c0-7.782 8.425-12.646 15.166-8.755z"/><path style="fill:#9e2019" d="m194.45 137.392-46.95-27.106v71.724l46.949-27.106c6.741-3.892 6.741-13.621.001-17.512z"/></svg>